<svg xmlns="http://www.w3.org/2000/svg" width="24" height="24" viewBox="0 0 24 24" fill="none" stroke="currentColor" stroke-width="2" stroke-linecap="round" stroke-linejoin="round" class="lucide lucide-speech-icon lucide-speech">
<rect width="24" height="24" x="0" y="0" rx="4" ry="4" fill="white"  stroke="none"/>
<g fill="none" stroke="currentColor" stroke-width="2" stroke-linecap="round" stroke-linejoin="round" >
	<path d="M8.8 20v-4.1l1.9.2a2.3 2.3 0 0 0 2.164-2.1V8.3A5.37 5.37 0 0 0 2 8.25c0 2.8.656 3.054 1 4.55a5.77 5.77 0 0 1 .029 2.758L2 20"/>
	<path d="M16.09 8a3 3 0 0 1 5.83 1c0 2-3 3-3 3"/>
	<path d="M19 16h.01"/>
</g>
</svg>


